<svg width="101" height="101" viewBox="0 0 101 101" fill="none" xmlns="http://www.w3.org/2000/svg">
<path d="M36.6514 58.6356C37.4608 58.6169 38.2655 58.5078 39.0506 58.3102C41.011 57.7844 42.7703 56.6868 44.1045 55.1573L53.9492 60.111C53.64 61.4751 53.6229 62.8892 53.8992 64.2604C54.1754 65.6315 54.7386 66.9287 55.5519 68.0667C56.4342 69.3666 57.6042 70.4456 58.9712 71.2198C60.3381 71.9941 61.8652 72.4429 63.4337 72.5312C65.0022 72.6195 66.57 72.345 68.0152 71.729C69.4605 71.1131 70.7442 70.1722 71.7668 68.9796C72.7894 67.7869 73.5233 66.3746 73.9114 64.8523C74.2995 63.33 74.3315 61.7387 74.0048 60.202C73.6781 58.6653 73.0016 57.2246 72.0277 55.9919C71.0538 54.7591 69.8089 53.7675 68.3896 53.094L71.2922 38.8525C72.5897 38.8006 73.8634 38.4876 75.0371 37.9322C76.2109 37.3768 77.2606 36.5904 78.1235 35.6201C79.6117 34.0576 80.5672 32.0641 80.853 29.9252C81.1388 27.7864 80.7403 25.612 79.7146 23.7135C78.6889 21.815 77.0886 20.2899 75.143 19.3567C73.1974 18.4235 71.0063 18.13 68.8837 18.5183C66.7611 18.9067 64.8159 19.9569 63.3267 21.5185C61.8376 23.0802 60.8809 25.0731 60.5938 27.2117C60.3067 29.3504 60.7039 31.5251 61.7285 33.4242C62.753 35.3232 64.3524 36.8493 66.2975 37.7837L63.3948 52.0253C62.6739 52.058 61.9588 52.1698 61.2622 52.3586C59.3019 52.8844 57.5426 53.982 56.2084 55.5115L46.3637 50.5578C46.6729 49.1937 46.6899 47.7796 46.4137 46.4085C46.1375 45.0373 45.5742 43.7401 44.761 42.6021C43.8852 41.3117 42.7257 40.2388 41.3713 39.4656C40.0168 38.6924 38.5034 38.2394 36.9469 38.1414C35.3904 38.0434 33.8322 38.3028 32.3914 38.9C30.9507 39.4971 29.6657 40.416 28.6349 41.5864C27.6042 42.7568 26.8549 44.1475 26.4445 45.6522C26.0342 47.1568 25.9736 48.7354 26.2675 50.267C26.5614 51.7986 27.2019 53.2427 28.14 54.4886C29.0781 55.7345 30.2888 56.7492 31.6796 57.455L26.404 80.2149L11.1944 23.4519L6.25848 24.7745L23.4519 88.9413C23.8027 90.2504 24.6591 91.3665 25.8328 92.0442C27.0065 92.7218 28.4013 92.9054 29.7104 92.5546L93.8772 75.3612L92.5546 70.4253L30.0414 87.1757L36.6514 58.6356ZM69.4571 23.7114C70.4333 23.4498 71.4652 23.4836 72.4222 23.8084C73.3793 24.1333 74.2185 24.7347 74.8337 25.5365C75.449 26.3383 75.8127 27.3046 75.8787 28.3131C75.9448 29.3216 75.7104 30.327 75.2051 31.2023C74.6997 32.0775 73.9462 32.7833 73.0398 33.2303C72.1333 33.6773 71.1147 33.8455 70.1127 33.7136C69.1106 33.5817 68.1702 33.1556 67.4104 32.4892C66.6505 31.8228 66.1053 30.9461 65.8438 29.9698C65.493 28.6608 65.6766 27.266 66.3542 26.0923C67.0319 24.9186 68.148 24.0621 69.4571 23.7114ZM68.8433 60.9079C69.1049 61.8841 69.0711 62.916 68.7462 63.873C68.4213 64.83 67.82 65.6692 67.0182 66.2845C66.2163 66.8997 65.2501 67.2634 64.2416 67.3295C63.2331 67.3956 62.2276 67.1612 61.3524 66.6559C60.4771 66.1505 59.7713 65.397 59.3243 64.4905C58.8773 63.5841 58.7091 62.5655 58.8411 61.5634C58.973 60.5614 59.3991 59.621 60.0655 58.8612C60.7318 58.1013 61.6086 57.5561 62.5848 57.2945C63.8939 56.9438 65.2887 57.1274 66.4624 57.805C67.6361 58.4827 68.4925 59.5988 68.8433 60.9079ZM35.0829 43.5025C36.0592 43.2409 37.091 43.2747 38.0481 43.5995C39.0051 43.9244 39.8443 44.5258 40.4596 45.3276C41.0748 46.1294 41.4385 47.0957 41.5046 48.1042C41.5707 49.1127 41.3362 50.1181 40.8309 50.9934C40.3256 51.8687 39.5721 52.5744 38.6656 53.0214C37.7592 53.4684 36.7405 53.6366 35.7385 53.5047C34.7365 53.3728 33.7961 52.9467 33.0362 52.2803C32.2764 51.6139 31.7312 50.7372 31.4696 49.761C31.1188 48.4519 31.3025 47.0571 31.9801 45.8834C32.6577 44.7097 33.7738 43.8532 35.0829 43.5025Z" fill="#F47D20"/>
</svg>
