<svg width="20" height="18" viewBox="0 0 20 18" fill="none" xmlns="http://www.w3.org/2000/svg">
<path d="M9.17585 17.3412C9.26759 17.4998 9.39035 17.6295 9.53354 17.7191C9.67674 17.8087 9.83608 17.8555 9.99785 17.8555C10.1596 17.8555 10.319 17.8087 10.4622 17.7191C10.6054 17.6295 10.7281 17.4998 10.8198 17.3412L19.8198 1.86755C19.924 1.68908 19.9851 1.48004 19.9965 1.26314C20.0078 1.04623 19.9691 0.829774 19.8843 0.63727C19.7996 0.444767 19.6722 0.283583 19.5159 0.171232C19.3596 0.0588809 19.1804 -0.00034083 18.9978 1.47554e-06H0.99786C0.815704 0.000897055 0.637199 0.0608804 0.481542 0.173501C0.325884 0.286121 0.198964 0.447117 0.11443 0.639175C0.0298962 0.831233 -0.00905315 1.04709 0.0017708 1.26352C0.0125947 1.47996 0.0727824 1.68879 0.175861 1.86755L9.17585 17.3412Z" fill="#2B3656"/>
</svg>
