<svg width="65" height="98" viewBox="0 0 65 98" fill="none" xmlns="http://www.w3.org/2000/svg">
<path fill-rule="evenodd" clip-rule="evenodd" d="M57.5792 83.2718C56.9887 55.3834 49.4525 44.7697 53.2312 32.662L57.6819 18.4009L59.6788 19.2838C60.2084 19.518 60.7945 19.4922 61.3081 19.212C61.8216 18.9318 62.2207 18.4203 62.4174 17.7899L63.901 13.0362C64.0978 12.4058 64.0761 11.7083 63.8407 11.0969C63.6053 10.4856 63.1755 10.0106 62.6459 9.77642L42.6773 0.946981C42.1477 0.71281 41.5616 0.738647 41.048 1.01881C40.5344 1.29897 40.1353 1.81051 39.9386 2.44089L38.455 7.1946C38.2583 7.82498 38.28 8.52256 38.5154 9.13389C38.7507 9.74522 39.1805 10.2202 39.7101 10.4544L41.707 11.3373L37.2562 25.5985C33.4776 37.7061 21.9476 39.8895 6.2038 60.5554C1.19307 67.1306 -9.00796 75.4681 25.9572 90.9284C60.9224 106.389 57.7683 92.1461 57.5792 83.2718ZM48.5236 88.7401C45.4085 88.4987 39.4746 87.1679 28.6276 82.3717C17.7807 77.5756 12.556 73.9725 10.0639 71.7346C9.17928 70.9431 9.22064 69.398 9.96523 68.2936C11.8379 65.4971 15.2132 60.7252 20.2306 55.949C32.4894 44.2802 34.9211 65.1332 41.4589 68.024C47.9966 70.9147 48.5193 62.7013 49.4808 68.8824C50.3577 74.5957 50.6947 80.4078 50.4857 86.2103C50.444 87.6255 49.6293 88.8232 48.5236 88.7401Z" fill="#F47D20"/>
</svg>
