<svg width="169" height="155" viewBox="0 0 169 155" fill="none" xmlns="http://www.w3.org/2000/svg">
<path d="M47.8128 76.8044C47.9731 76.2696 48.3768 75.8315 48.9351 75.5867C49.4934 75.3418 50.1605 75.3102 50.7898 75.4987L84.0062 85.453C84.6355 85.6416 85.1753 86.0349 85.5069 86.5465C85.8385 87.058 85.9348 87.6459 85.7745 88.1807C85.6142 88.7156 85.2105 89.1537 84.6522 89.3985C84.0939 89.6434 83.4268 89.675 82.7975 89.4864L49.581 79.5322C48.9518 79.3436 48.412 78.9503 48.0804 78.4387C47.7488 77.9272 47.6525 77.3393 47.8128 76.8044Z" fill="#F47D20"/>
<path d="M47.768 85.5823C47.1387 85.3937 46.4716 85.4254 45.9133 85.6702C45.355 85.9151 44.9513 86.3531 44.791 86.888C44.6307 87.4229 44.727 88.0107 45.0586 88.5223C45.3902 89.0338 45.93 89.4272 46.5593 89.6157L79.7757 99.57C80.405 99.7586 81.0721 99.7269 81.6304 99.4821C82.1887 99.2372 82.5924 98.7992 82.7527 98.2643C82.913 97.7294 82.8167 97.1416 82.4851 96.63C82.1535 96.1185 81.6137 95.7251 80.9844 95.5366L47.768 85.5823Z" fill="#F47D20"/>
<path d="M60.37 60.7871L62.1831 54.7369L66.9283 56.159L65.1152 62.2091L72.233 64.3422L71.0242 68.3756L63.9064 66.2425L62.0933 72.2927L57.3481 70.8707L59.1612 64.8205L52.0434 62.6875L53.2521 58.654L60.37 60.7871Z" fill="#F47D20"/>
<path fill-rule="evenodd" clip-rule="evenodd" d="M71.808 31.2474C69.9203 30.6817 67.9188 30.7766 66.2439 31.5111C64.5691 32.2457 63.358 33.5599 62.8771 35.1645L55.7593 33.0314C53.8715 32.4657 51.8701 32.5606 50.1952 33.2952C48.5203 34.0298 47.3093 35.3439 46.8284 36.9485L30.5105 91.3998C30.0297 93.0044 30.3184 94.768 31.3132 96.3026C32.3081 97.8373 33.9275 99.0172 35.8152 99.583L83.2673 113.803C85.1551 114.369 87.1565 114.274 88.8314 113.54C90.5063 112.805 91.7174 111.491 92.1982 109.886L108.516 55.435C108.997 53.8304 108.708 52.0668 107.713 50.5321C106.719 48.9975 105.099 47.8175 103.211 47.2518L96.0936 45.1187C96.5744 43.5141 96.2857 41.7505 95.2909 40.2159C94.296 38.6812 92.6766 37.5013 90.7889 36.9355L71.808 31.2474ZM87.1627 49.0358C87.7919 49.2244 88.4591 49.1928 89.0174 48.9479C89.5757 48.703 89.9793 48.265 90.1396 47.7301L91.3484 43.6967C91.5086 43.1618 91.4124 42.574 91.0808 42.0624C90.7492 41.5509 90.2094 41.1575 89.5801 40.969L70.5993 35.2808C69.97 35.0923 69.3029 35.1239 68.7446 35.3687C68.1863 35.6136 67.7826 36.0517 67.6223 36.5865L66.4136 40.6199C66.2533 41.1548 66.3496 41.7427 66.6812 42.2542C67.0128 42.7658 67.5526 43.1591 68.1818 43.3477L87.1627 49.0358ZM61.6684 39.1979C61.1875 40.8025 61.4763 42.5661 62.4711 44.1008C63.4659 45.6354 65.0853 46.8154 66.9731 47.3811L85.9539 53.0693C87.8417 53.635 89.8432 53.5401 91.518 52.8055C93.1929 52.0709 94.404 50.7568 94.8848 49.1522L102.003 51.2852C102.632 51.4738 103.172 51.8671 103.503 52.3787C103.835 52.8902 103.931 53.4781 103.771 54.013L87.453 108.464C87.2927 108.999 86.889 109.437 86.3307 109.682C85.7725 109.927 85.1053 109.958 84.476 109.77L37.024 95.5495C36.3947 95.361 35.8549 94.9676 35.5233 94.4561C35.1917 93.9445 35.0954 93.3567 35.2557 92.8218L51.5736 38.3706C51.7339 37.8357 52.1376 37.3976 52.6959 37.1528C53.2542 36.9079 53.9213 36.8763 54.5506 37.0649L61.6684 39.1979Z" fill="#F47D20"/>
<path fill-rule="evenodd" clip-rule="evenodd" d="M114.985 68.3626C115.466 66.758 116.677 65.4439 118.352 64.7093C120.026 63.9747 122.028 63.8798 123.916 64.4455C125.803 65.0113 127.423 66.1912 128.418 67.7259C129.412 69.2605 129.701 71.0241 129.22 72.6287L116.95 113.574L107.112 120.516L102.714 109.308L114.985 68.3626ZM122.707 68.479C122.078 68.2904 121.41 68.322 120.852 68.5669C120.294 68.8118 119.89 69.2498 119.73 69.7847L118.521 73.8181L123.266 75.2401L124.475 71.2067C124.635 70.6718 124.539 70.084 124.208 69.5724C123.876 69.0609 123.336 68.6675 122.707 68.479ZM109.292 113.244L112.571 110.93L122.058 79.2736L117.312 77.8515L107.826 109.508L109.292 113.244Z" fill="#F47D20"/>
</svg>
