<svg width="71" height="71" viewBox="0 0 71 71" fill="none" xmlns="http://www.w3.org/2000/svg">
<path d="M17.75 48.8125C17.75 47.6356 18.2175 46.5069 19.0497 45.6747C19.8819 44.8425 21.0106 44.375 22.1875 44.375C23.3644 44.375 24.4931 44.8425 25.3253 45.6747C26.1575 46.5069 26.625 47.6356 26.625 48.8125V53.25C26.625 54.4269 26.1575 55.5556 25.3253 56.3878C24.4931 57.22 23.3644 57.6875 22.1875 57.6875C21.0106 57.6875 19.8819 57.22 19.0497 56.3878C18.2175 55.5556 17.75 54.4269 17.75 53.25V48.8125ZM44.375 31.0625C44.375 29.8856 44.8425 28.7569 45.6747 27.9247C46.5069 27.0925 47.6356 26.625 48.8125 26.625C49.9894 26.625 51.1181 27.0925 51.9503 27.9247C52.7825 28.7569 53.25 29.8856 53.25 31.0625V53.25C53.25 54.4269 52.7825 55.5556 51.9503 56.3878C51.1181 57.22 49.9894 57.6875 48.8125 57.6875C47.6356 57.6875 46.5069 57.22 45.6747 56.3878C44.8425 55.5556 44.375 54.4269 44.375 53.25V31.0625ZM31.0625 39.9375C31.0625 38.7606 31.53 37.6319 32.3622 36.7997C33.1944 35.9675 34.3231 35.5 35.5 35.5C36.6769 35.5 37.8056 35.9675 38.6378 36.7997C39.47 37.6319 39.9375 38.7606 39.9375 39.9375V53.25C39.9375 54.4269 39.47 55.5556 38.6378 56.3878C37.8056 57.22 36.6769 57.6875 35.5 57.6875C34.3231 57.6875 33.1944 57.22 32.3622 56.3878C31.53 55.5556 31.0625 54.4269 31.0625 53.25V39.9375Z" fill="#282C52"/>
<path d="M17.75 6.65625H13.3125C10.9587 6.65625 8.70131 7.59129 7.03693 9.25568C5.37254 10.9201 4.4375 13.1775 4.4375 15.5312V62.125C4.4375 64.4788 5.37254 66.7362 7.03693 68.4006C8.70131 70.065 10.9587 71 13.3125 71H57.6875C60.0413 71 62.2987 70.065 63.9631 68.4006C65.6275 66.7362 66.5625 64.4788 66.5625 62.125V15.5312C66.5625 13.1775 65.6275 10.9201 63.9631 9.25568C62.2987 7.59129 60.0413 6.65625 57.6875 6.65625H53.25V11.0938H57.6875C58.8644 11.0938 59.9931 11.5613 60.8253 12.3935C61.6575 13.2257 62.125 14.3544 62.125 15.5312V62.125C62.125 63.3019 61.6575 64.4306 60.8253 65.2628C59.9931 66.095 58.8644 66.5625 57.6875 66.5625H13.3125C12.1356 66.5625 11.0069 66.095 10.1747 65.2628C9.34252 64.4306 8.875 63.3019 8.875 62.125V15.5312C8.875 14.3544 9.34252 13.2257 10.1747 12.3935C11.0069 11.5613 12.1356 11.0938 13.3125 11.0938H17.75V6.65625Z" fill="#282C52"/>
<path d="M42.1562 4.4375C42.7447 4.4375 43.309 4.67126 43.7251 5.08736C44.1412 5.50345 44.375 6.0678 44.375 6.65625V11.0938C44.375 11.6822 44.1412 12.2465 43.7251 12.6626C43.309 13.0787 42.7447 13.3125 42.1562 13.3125H28.8438C28.2553 13.3125 27.691 13.0787 27.2749 12.6626C26.8588 12.2465 26.625 11.6822 26.625 11.0938V6.65625C26.625 6.0678 26.8588 5.50345 27.2749 5.08736C27.691 4.67126 28.2553 4.4375 28.8438 4.4375H42.1562ZM28.8438 0C27.0784 0 25.3854 0.701281 24.1371 1.94957C22.8888 3.19786 22.1875 4.8909 22.1875 6.65625V11.0938C22.1875 12.8591 22.8888 14.5521 24.1371 15.8004C25.3854 17.0487 27.0784 17.75 28.8438 17.75H42.1562C43.9216 17.75 45.6146 17.0487 46.8629 15.8004C48.1112 14.5521 48.8125 12.8591 48.8125 11.0938V6.65625C48.8125 4.8909 48.1112 3.19786 46.8629 1.94957C45.6146 0.701281 43.9216 0 42.1562 0L28.8438 0Z" fill="#282C52"/>
</svg>
