<svg width="70" height="71" viewBox="0 0 70 71" fill="none" xmlns="http://www.w3.org/2000/svg">
<path d="M32.0396 9.3631C32.1672 8.5891 31.9865 7.79536 31.5371 7.15652C31.0878 6.51767 30.4066 6.08604 29.6435 5.95658C28.8804 5.82712 28.0979 6.01044 27.468 6.4662C26.8382 6.92197 26.4126 7.61285 26.285 8.38685L23.7766 23.6607L11.6608 23.6666C10.8873 23.6674 10.1457 23.9799 9.59927 24.5352C9.05284 25.0906 8.74629 25.8433 8.74706 26.6279C8.74784 27.4125 9.05587 28.1647 9.6034 28.7189C10.1509 29.2732 10.8931 29.5841 11.6666 29.5833L22.7996 29.5774L20.8541 41.4107L8.74998 41.4166C7.97643 41.4166 7.23457 41.7283 6.68758 42.2831C6.1406 42.8379 5.83331 43.5904 5.83331 44.375C5.83331 45.1596 6.1406 45.912 6.68758 46.4668C7.23457 47.0216 7.97643 47.3333 8.74998 47.3333L19.8829 47.3274L17.5291 61.6398C17.4661 62.0231 17.4782 62.4151 17.5646 62.7937C17.6509 63.1722 17.81 63.5298 18.0326 63.846C18.2553 64.1622 18.5371 64.4308 18.8621 64.6365C19.1871 64.8422 19.5488 64.9809 19.9266 65.0449C20.3045 65.1088 20.6911 65.0966 21.0643 65.0089C21.4375 64.9213 21.79 64.76 22.1017 64.5342C22.4135 64.3084 22.6783 64.0225 22.8811 63.6929C23.0839 63.3633 23.2207 62.9964 23.2837 62.6131L25.7979 47.3274L40.3083 47.3185L37.9575 61.6369C37.8841 62.0243 37.8878 62.4226 37.9684 62.8085C38.0491 63.1945 38.205 63.5601 38.427 63.884C38.649 64.2079 38.9327 64.4835 39.2613 64.6945C39.5899 64.9056 39.9567 65.0478 40.3403 65.1129C40.7239 65.1781 41.1165 65.1647 41.4949 65.0736C41.8734 64.9826 42.23 64.8157 42.5439 64.5828C42.8578 64.3498 43.1226 64.0556 43.3227 63.7173C43.5228 63.3791 43.6542 63.0036 43.7092 62.6131L46.2233 47.3185L58.3333 47.3096C59.1069 47.3096 59.8487 46.998 60.3957 46.4432C60.9427 45.8884 61.25 45.1359 61.25 44.3513C61.25 43.5667 60.9427 42.8142 60.3957 42.2595C59.8487 41.7047 59.1069 41.393 58.3333 41.393L47.1946 41.3959L49.14 29.5596L61.25 29.5537C62.0235 29.5537 62.7654 29.242 63.3124 28.6873C63.8594 28.1325 64.1667 27.38 64.1667 26.5954C64.1667 25.8108 63.8594 25.0583 63.3124 24.5035C62.7654 23.9487 62.0235 23.6371 61.25 23.6371L50.1141 23.643L52.4592 9.3631C52.5326 8.97571 52.5288 8.57733 52.4482 8.19142C52.3676 7.80551 52.2116 7.43985 51.9896 7.11596C51.7676 6.79207 51.4839 6.51649 51.1553 6.30544C50.8268 6.09438 50.4599 5.95212 50.0763 5.88701C49.6927 5.8219 49.3001 5.83526 48.9217 5.92631C48.5433 6.01736 48.1866 6.18426 47.8727 6.41719C47.5588 6.65011 47.2941 6.94436 47.0939 7.28262C46.8938 7.62088 46.7624 7.99632 46.7075 8.38685L44.1992 23.6489L29.6887 23.6578L32.0396 9.3631ZM28.7146 29.5744L43.2279 29.5656L41.2825 41.4019L26.7691 41.4078L28.7146 29.5744Z" fill="#282C52"/>
</svg>
