<svg width="309" height="261" viewBox="0 0 309 261" fill="none" xmlns="http://www.w3.org/2000/svg">
<g opacity="0.2" clip-path="url(#clip0_7_69)">
<path d="M177.294 86.4074C229.088 117.885 274.208 161.926 281.602 195.053C282.275 198.066 282.594 200.872 282.627 203.485L415.26 284.092C434.698 295.905 440.265 320.849 427.696 339.807L425.83 342.62C413.261 361.577 387.314 367.368 367.876 355.555L235.349 275.013C232.814 276.137 229.956 277.084 226.735 277.802C192.277 285.494 131.446 265.145 79.6525 233.668C69.1974 227.314 82.5798 189.198 109.543 148.534C136.505 107.868 166.839 80.0534 177.294 86.4074V86.4074Z" fill="#52A38A"/>
<path d="M354.032 273L348.052 282.018C344.282 287.704 336.499 289.441 330.668 285.898L304.824 270.191C304.429 269.951 304.089 269.638 303.822 269.27C303.555 268.901 303.367 268.484 303.268 268.042C303.17 267.601 303.163 267.143 303.247 266.696C303.332 266.249 303.507 265.821 303.762 265.436L319.51 241.685C319.765 241.3 320.096 240.967 320.482 240.703C320.869 240.439 321.304 240.251 321.764 240.148C322.223 240.046 322.697 240.031 323.159 240.105C323.621 240.18 324.062 240.341 324.457 240.581L350.302 256.288C356.131 259.832 357.801 267.314 354.032 273V273Z" fill="#282C52"/>
<path d="M174.668 96.9845C183.396 102.289 171.189 135.669 147.403 171.542C123.617 207.416 97.26 232.195 88.5319 226.892C79.8036 221.587 92.0106 188.207 115.797 152.334C139.583 116.46 165.941 91.6805 174.668 96.9845ZM92.0435 129.25L50.3212 103.894C46.8745 101.799 42.2725 102.826 40.0435 106.188C37.8148 109.55 38.8021 113.973 42.249 116.069L83.9713 141.425C87.418 143.52 92.02 142.493 94.249 139.131C95.3634 137.45 95.6741 135.504 95.275 133.716C94.8758 131.927 93.767 130.298 92.0435 129.25ZM67.8232 168.747L30.6247 177.05C26.6107 177.946 24.0557 181.8 24.9168 185.658C25.778 189.517 29.7302 191.918 33.7434 191.023L70.9419 182.72C74.9559 181.824 77.5109 177.97 76.6498 174.112C75.7886 170.253 71.8364 167.852 67.8232 168.747ZM108.804 59.3762C104.79 60.2721 102.235 64.1265 103.096 67.9846L111.471 105.506C112.332 109.365 116.284 111.766 120.297 110.87C124.311 109.974 126.866 106.12 126.005 102.262L117.63 64.7405C116.77 60.8822 112.818 58.4803 108.804 59.3762Z" fill="#FFB636"/>
</g>
<defs>
<clipPath id="clip0_7_69">
<rect width="361.228" height="375.752" fill="white" transform="translate(78.6902 434.406) rotate(-102.582)"/>
</clipPath>
</defs>
</svg>
