<svg width="486" height="493" viewBox="0 0 486 493" fill="none" xmlns="http://www.w3.org/2000/svg">
<g clip-path="url(#clip0_5:7)">
<path d="M374.381 290.12C317.874 312.037 255.464 321.01 224.684 306.704C221.884 305.402 219.465 303.948 217.372 302.381L72.6683 358.507C51.4621 366.732 28.2858 355.959 20.9019 334.445L19.8061 331.252C12.4228 309.739 23.6285 285.63 44.8348 277.405L189.422 221.325C190.075 218.629 191.064 215.786 192.455 212.794C207.337 180.777 260.518 144.915 317.025 122.998C328.432 118.573 350.518 152.399 366.356 198.548C382.195 244.698 385.787 285.696 374.381 290.12Z" fill="#52A38A"/>
<path d="M118.751 316.693L115.238 306.458C113.024 300.005 116.385 292.774 122.746 290.307L150.942 279.37C151.373 279.203 151.829 279.124 152.284 279.137C152.739 279.149 153.184 279.254 153.594 279.445C154.004 279.636 154.372 279.909 154.675 280.248C154.978 280.588 155.211 280.987 155.361 281.424L164.611 308.378C164.761 308.815 164.825 309.28 164.798 309.747C164.772 310.214 164.657 310.675 164.458 311.101C164.26 311.528 163.983 311.913 163.642 312.234C163.302 312.556 162.905 312.807 162.475 312.974L134.278 323.91C127.918 326.377 120.966 323.146 118.751 316.693Z" fill="#282C52"/>
<path d="M367.59 281.597C358.067 285.29 339.023 255.281 325.051 214.569C311.079 173.857 307.472 137.861 316.994 134.167C326.517 130.474 345.562 160.483 359.533 201.195C373.505 241.907 377.111 277.904 367.59 281.597ZM392.308 196.409L437.827 178.754C441.587 177.295 443.575 173.019 442.266 169.205C440.956 165.389 436.846 163.479 433.085 164.937L387.566 182.592C383.805 184.051 381.818 188.327 383.127 192.142C383.782 194.049 385.137 195.481 386.798 196.253C388.46 197.026 390.427 197.138 392.308 196.409ZM375.726 153.146L391.791 118.584C393.525 114.854 392.023 110.48 388.438 108.814C384.854 107.148 380.542 108.82 378.808 112.549L362.743 147.112C361.01 150.841 362.511 155.215 366.096 156.881C369.681 158.547 373.993 156.875 375.726 153.146ZM437.528 252.252C439.262 248.522 437.76 244.149 434.175 242.482L399.313 226.278C395.727 224.611 391.416 226.284 389.683 230.013C387.95 233.742 389.451 238.116 393.036 239.782L427.898 255.987C431.483 257.654 435.795 255.981 437.528 252.252Z" fill="#F47D20"/>
</g>
<defs>
<clipPath id="clip0_5:7">
<rect width="361.228" height="375.752" fill="white" transform="translate(158.38) rotate(24.9295)"/>
</clipPath>
</defs>
</svg>
