<svg width="72" height="72" viewBox="0 0 72 72" fill="none" xmlns="http://www.w3.org/2000/svg">
<path d="M54.5807 0.660065C54.7894 0.450833 55.0373 0.284832 55.3103 0.171567C55.5832 0.0583023 55.8758 0 56.1714 0C56.4669 0 56.7595 0.0583023 57.0325 0.171567C57.3054 0.284832 57.5534 0.450833 57.7621 0.660065L71.2425 14.1405C71.6644 14.5624 71.9014 15.1346 71.9014 15.7312C71.9014 16.3278 71.6644 16.9 71.2425 17.3219C70.8206 17.7438 70.2484 17.9808 69.6518 17.9808C69.0552 17.9808 68.483 17.7438 68.0611 17.3219L66.2817 15.538L58.2249 23.5948L66.749 32.1144C67.1709 32.5363 67.4079 33.1085 67.4079 33.7051C67.4079 34.3018 67.1709 34.874 66.749 35.2958C66.3271 35.7177 65.755 35.9547 65.1583 35.9547C64.5617 35.9547 63.9895 35.7177 63.5676 35.2958L58.4181 30.1418L33.4343 55.1256C32.3908 56.17 31.1517 56.9985 29.7877 57.5636C28.4238 58.1288 26.9618 58.4196 25.4854 58.4193H16.6602L3.84027 71.2437C3.41839 71.6656 2.8462 71.9026 2.24958 71.9026C1.65295 71.9026 1.08076 71.6656 0.658886 71.2437C0.237008 70.8218 8.89041e-09 70.2496 0 69.653C-8.89041e-09 69.0564 0.237008 68.4842 0.658886 68.0623L13.4833 55.2424V46.4127C13.4839 43.4347 14.667 40.5788 16.7725 38.4727L41.7563 13.4845L36.6067 8.33493C36.1849 7.91306 35.9479 7.34087 35.9479 6.74424C35.9479 6.14762 36.1849 5.57543 36.6067 5.15355C37.0286 4.73167 37.6008 4.49466 38.1974 4.49466C38.7941 4.49466 39.3663 4.73167 39.7881 5.15355L48.3078 13.6777L56.3646 5.62087L54.5807 3.84145C54.3714 3.63275 54.2054 3.38482 54.0922 3.11186C53.9789 2.8389 53.9206 2.54628 53.9206 2.25076C53.9206 1.95523 53.9789 1.66261 54.0922 1.38966C54.2054 1.1167 54.3714 0.868767 54.5807 0.660065V0.660065ZM35.9507 25.6483L32.3874 29.2117L35.2946 32.1144C35.7165 32.5363 35.9535 33.1085 35.9535 33.7051C35.9535 34.3018 35.7165 34.874 35.2946 35.2958C34.8728 35.7177 34.3006 35.9547 33.704 35.9547C33.1073 35.9547 32.5351 35.7177 32.1133 35.2958L29.2105 32.3885L25.6471 35.9519L28.5544 38.8547C28.9763 39.2765 29.2133 39.8487 29.2133 40.4454C29.2133 41.042 28.9763 41.6142 28.5544 42.0361C28.1325 42.4579 27.5604 42.6949 26.9637 42.6949C26.3671 42.6949 25.7949 42.4579 25.373 42.0361L22.4702 39.1288L19.9539 41.6451C19.3268 42.2715 18.8293 43.0154 18.4901 43.8342C18.1508 44.6531 17.9764 45.5308 17.9768 46.4172V53.9258H25.4899C27.2769 53.9242 28.9901 53.2131 30.253 51.9487L55.2367 26.9649L44.9377 16.6614L39.1276 22.4714L42.0349 25.3742C42.4568 25.7961 42.6938 26.3683 42.6938 26.9649C42.6938 27.5615 42.4568 28.1337 42.0349 28.5556C41.613 28.9775 41.0408 29.2145 40.4442 29.2145C39.8476 29.2145 39.2754 28.9775 38.8535 28.5556L35.9507 25.6483ZM63.1048 12.3611L59.5415 8.79776L51.4847 16.8546L55.048 20.4179L63.1048 12.3611Z" fill="black"/>
</svg>
