<?xml version="1.0" encoding="UTF-8" standalone="no"?>
<svg
   xmlns:dc="http://purl.org/dc/elements/1.1/"
   xmlns:cc="http://creativecommons.org/ns#"
   xmlns:rdf="http://www.w3.org/1999/02/22-rdf-syntax-ns#"
   xmlns:svg="http://www.w3.org/2000/svg"
   xmlns="http://www.w3.org/2000/svg"
   xmlns:sodipodi="http://sodipodi.sourceforge.net/DTD/sodipodi-0.dtd"
   xmlns:inkscape="http://www.inkscape.org/namespaces/inkscape"
   width="47"
   height="47"
   viewBox="0 0 47 47"
   version="1.1"
   id="svg83"
   sodipodi:docname="twitter.svg"
   inkscape:version="0.92.5 (2060ec1f9f, 2020-04-08)"
   style="fill:none">
  <metadata
     id="metadata89">
    <rdf:RDF>
      <cc:Work
         rdf:about="">
        <dc:format>image/svg+xml</dc:format>
        <dc:type
           rdf:resource="http://purl.org/dc/dcmitype/StillImage" />
        <dc:title></dc:title>
      </cc:Work>
    </rdf:RDF>
  </metadata>
  <defs
     id="defs87" />
  <sodipodi:namedview
     pagecolor="#ffffff"
     bordercolor="#666666"
     borderopacity="1"
     objecttolerance="10"
     gridtolerance="10"
     guidetolerance="10"
     inkscape:pageopacity="0"
     inkscape:pageshadow="2"
     inkscape:window-width="1848"
     inkscape:window-height="1009"
     id="namedview85"
     showgrid="false"
     inkscape:zoom="12.75"
     inkscape:cx="-6.9661525"
     inkscape:cy="30.508324"
     inkscape:window-x="72"
     inkscape:window-y="34"
     inkscape:window-maximized="1"
     inkscape:current-layer="svg83" />
  <path
     d="M 0,23.5 C 0,36.478756 10.521302,47 23.5,47 36.478756,47 47,36.478756 47,23.5 47,10.521303 36.478756,0 23.5,0 10.521302,0 0,10.521303 0,23.5 Z"
     id="path79"
     inkscape:connector-curvature="0"
     style="fill:#52a38a;fill-opacity:1;stroke-width:1.46875" />
  <path
     d="m 35.25,16.15625 c -0.88125,0.440625 -1.7625,0.5875 -2.790625,0.734375 1.028125,-0.5875 1.7625,-1.46875 2.05625,-2.64375 -0.88125,0.5875 -1.909375,0.88125 -3.084375,1.175 -0.88125,-0.88125 -2.203125,-1.46875 -3.525,-1.46875 -3.084375,0 -5.434375,2.9375 -4.7,5.875 -3.965625,-0.146875 -7.490625,-2.05625 -9.9875,-4.99375 -1.321875,2.203125 -0.5875,4.99375 1.46875,6.4625 -0.734375,0 -1.46875,-0.29375 -2.203125,-0.5875 0,2.203125 1.615625,4.259375 3.81875,4.846875 C 15.56875,25.703125 14.834375,25.85 14.1,25.703125 c 0.5875,1.909375 2.35,3.378125 4.553125,3.378125 -1.7625,1.321875 -4.40625,2.05625 -6.903125,1.7625 2.203125,1.321875 4.7,2.203125 7.34375,2.203125 8.959375,0 13.953125,-7.490625 13.659375,-14.39375 1.028125,-0.5875 1.909375,-1.46875 2.496875,-2.496875 z"
     id="path81"
     inkscape:connector-curvature="0"
     style="fill:#ffffff;stroke-width:1.46875" />
</svg>
